# xmcd
#
# Track frame offsets: 
#        150
#        16438
#        31163
#        45913
#        63163
#        78488
#        95338
#        116788
#        130688
#        149013
#        162600
#        176863
#
# Disc length: 2578 seconds
#
# Revision: 0
# Processed by: cddbd v1.5.1PL2 Copyright (c) Steve Scherf et al.
# Submitted via: ExactAudioCopy v0.95b4
#
DISCID=a00a100c
DTITLE=Lee Greenwood - All-Time Favorites! - Volume Two
DYEAR=1994
DGENRE=Country
TTITLE0=It Turns Me Inside Out
TTITLE1=I Don't Want To Wake You
TTITLE2=Love Me Like I'm Leavin' Tonight
TTITLE3=From Now On
TTITLE4=I Don't Mind The Thorns (If You're The Rose)
TTITLE5=Fool's Gold
TTITLE6=If Only For One Night
TTITLE7=Don't Underestimate My Love For You
TTITLE8=Silver Saxophone
TTITLE9=Hearts Aren't Made To Break (They're Made To Love)
TTITLE10=Someone
TTITLE11=Ring Of Her Finger, Time On Her Hands
EXTD=
EXTT0=
EXTT1=
EXTT2=
EXTT3=
EXTT4=
EXTT5=
EXTT6=
EXTT7=
EXTT8=
EXTT9=
EXTT10=
EXTT11=
PLAYORDER=
